STARTFONT 2.1
FONT -URW-ITC Bookman-Demi-R-Normal--12-120-72-72-P-73-ISO8859-1
SIZE 12 72 72
FONTBOUNDINGBOX 20 15 -4 -3

STARTPROPERTIES 22
FONTNAME_REGISTRY "-"
FOUNDRY "URW"
FAMILY_NAME "ITC Bookman"
WEIGHT_NAME "Demi"
SLANT "R"
SETWIDTH_NAME "Normal"
ADD_STYLE_NAME ""
PIXEL_SIZE 12
POINT_SIZE 120
RESOLUTION_X 72
RESOLUTION_Y 72
SPACING "P"
CHARSET_REGISTRY "ISO8859"
CHARSET_ENCODING "1"
FULL_NAME "Bookman-Demi"
AVERAGE_WIDTH 73
WEIGHT 10
X_HEIGHT 6
QUAD_WIDTH 9
DEFAULT_CHAR 32
FONT_DESCENT 3
FONT_ASCENT 12
ENDPROPERTIES

CHARS 190

STARTCHAR space
ENCODING 32
SWIDTH 340 0
DWIDTH 4 0
BBX 1 1 0 0
BITMAP
00
ENDCHAR

STARTCHAR exclam
ENCODING 33
SWIDTH 360 0
DWIDTH 4 0
BBX 2 9 1 0
BITMAP
C0
C0
C0
C0
C0
C0
00
C0
C0
ENDCHAR

STARTCHAR quotedbl
ENCODING 34
SWIDTH 420 0
DWIDTH 5 0
BBX 5 4 0 5
BITMAP
D8
D8
D8
90
ENDCHAR

STARTCHAR numbersign
ENCODING 35
SWIDTH 660 0
DWIDTH 7 0
BBX 6 9 1 0
BITMAP
28
28
28
FC
68
FC
50
50
50
ENDCHAR

STARTCHAR dollar
ENCODING 36
SWIDTH 660 0
DWIDTH 8 0
BBX 7 13 1 -2
BITMAP
10
10
7C
C6
C0
E0
7C
0E
06
C6
FC
10
10
ENDCHAR

STARTCHAR percent
ENCODING 37
SWIDTH 940 0
DWIDTH 11 0
BBX 10 9 1 0
BITMAP
6100
9200
9200
9400
9D80
6A40
1240
1240
2180
ENDCHAR

STARTCHAR ampersand
ENCODING 38
SWIDTH 800 0
DWIDTH 10 0
BBX 8 9 1 0
BITMAP
30
68
68
37
72
DA
DC
CC
77
ENDCHAR

STARTCHAR quoteright
ENCODING 39
SWIDTH 320 0
DWIDTH 4 0
BBX 2 3 1 6
BITMAP
C0
C0
80
ENDCHAR

STARTCHAR parenleft
ENCODING 40
SWIDTH 320 0
DWIDTH 4 0
BBX 3 11 1 -2
BITMAP
60
40
C0
C0
C0
C0
C0
C0
C0
40
60
ENDCHAR

STARTCHAR parenright
ENCODING 41
SWIDTH 320 0
DWIDTH 4 0
BBX 3 11 0 -2
BITMAP
C0
40
60
60
60
60
60
60
60
40
C0
ENDCHAR

STARTCHAR asterisk
ENCODING 42
SWIDTH 460 0
DWIDTH 6 0
BBX 4 4 1 4
BITMAP
60
F0
F0
60
ENDCHAR

STARTCHAR plus
ENCODING 43
SWIDTH 600 0
DWIDTH 7 0
BBX 5 5 1 2
BITMAP
20
20
F8
20
20
ENDCHAR

STARTCHAR comma
ENCODING 44
SWIDTH 340 0
DWIDTH 4 0
BBX 2 3 1 -2
BITMAP
C0
C0
80
ENDCHAR

STARTCHAR minus
ENCODING 45
SWIDTH 600 0
DWIDTH 7 0
BBX 6 1 1 4
BITMAP
FC
ENDCHAR

STARTCHAR period
ENCODING 46
SWIDTH 340 0
DWIDTH 4 0
BBX 2 2 1 0
BITMAP
C0
C0
ENDCHAR

STARTCHAR slash
ENCODING 47
SWIDTH 600 0
DWIDTH 7 0
BBX 6 11 1 -2
BITMAP
0C
08
08
18
10
30
20
60
60
40
C0
ENDCHAR

STARTCHAR zero
ENCODING 48
SWIDTH 660 0
DWIDTH 8 0
BBX 7 9 1 0
BITMAP
38
6C
C6
C6
C6
C6
C6
6C
38
ENDCHAR

STARTCHAR one
ENCODING 49
SWIDTH 660 0
DWIDTH 8 0
BBX 6 9 1 0
BITMAP
F0
30
30
30
30
30
30
30
FC
ENDCHAR

STARTCHAR two
ENCODING 50
SWIDTH 660 0
DWIDTH 8 0
BBX 6 9 1 0
BITMAP
78
CC
CC
0C
18
30
64
FC
F8
ENDCHAR

STARTCHAR three
ENCODING 51
SWIDTH 660 0
DWIDTH 8 0
BBX 6 9 1 0
BITMAP
78
CC
CC
CC
38
0C
CC
CC
78
ENDCHAR

STARTCHAR four
ENCODING 52
SWIDTH 660 0
DWIDTH 8 0
BBX 8 9 0 0
BITMAP
0C
1C
1C
2C
6C
4C
FF
0C
1E
ENDCHAR

STARTCHAR five
ENCODING 53
SWIDTH 660 0
DWIDTH 8 0
BBX 7 9 1 0
BITMAP
FC
FC
80
BC
CE
06
C6
CE
78
ENDCHAR

STARTCHAR six
ENCODING 54
SWIDTH 660 0
DWIDTH 8 0
BBX 7 9 1 0
BITMAP
3C
66
C0
C0
FC
C6
C6
46
3C
ENDCHAR

STARTCHAR seven
ENCODING 55
SWIDTH 660 0
DWIDTH 8 0
BBX 7 9 1 0
BITMAP
FE
82
04
0C
18
18
30
30
30
ENDCHAR

STARTCHAR eight
ENCODING 56
SWIDTH 660 0
DWIDTH 8 0
BBX 7 9 1 0
BITMAP
78
C4
C4
E4
7C
9E
86
86
7C
ENDCHAR

STARTCHAR nine
ENCODING 57
SWIDTH 660 0
DWIDTH 8 0
BBX 7 9 1 0
BITMAP
78
C4
C6
C6
C6
7E
06
CC
78
ENDCHAR

STARTCHAR colon
ENCODING 58
SWIDTH 340 0
DWIDTH 4 0
BBX 2 6 1 0
BITMAP
C0
C0
00
00
C0
C0
ENDCHAR

STARTCHAR semicolon
ENCODING 59
SWIDTH 340 0
DWIDTH 4 0
BBX 2 7 1 -2
BITMAP
C0
C0
00
00
C0
C0
80
ENDCHAR

STARTCHAR less
ENCODING 60
SWIDTH 600 0
DWIDTH 7 0
BBX 6 7 1 0
BITMAP
04
1C
70
C0
70
1C
04
ENDCHAR

STARTCHAR equal
ENCODING 61
SWIDTH 600 0
DWIDTH 7 0
BBX 6 3 1 3
BITMAP
FC
00
FC
ENDCHAR

STARTCHAR greater
ENCODING 62
SWIDTH 600 0
DWIDTH 7 0
BBX 6 7 1 0
BITMAP
80
E0
38
0C
38
E0
80
ENDCHAR

STARTCHAR question
ENCODING 63
SWIDTH 660 0
DWIDTH 8 0
BBX 6 9 1 0
BITMAP
78
8C
8C
1C
38
20
00
30
30
ENDCHAR

STARTCHAR at
ENCODING 64
SWIDTH 820 0
DWIDTH 10 0
BBX 9 9 0 0
BITMAP
1E00
6100
C080
9E80
B480
A580
FF80
6100
1E00
ENDCHAR

STARTCHAR A
ENCODING 65
SWIDTH 720 0
DWIDTH 9 0
BBX 10 9 0 0
BITMAP
0C00
0C00
1600
1600
3600
3F00
2300
6300
F7C0
ENDCHAR

STARTCHAR B
ENCODING 66
SWIDTH 720 0
DWIDTH 9 0
BBX 8 9 0 0
BITMAP
FE
63
63
63
7E
63
63
63
FE
ENDCHAR

STARTCHAR C
ENCODING 67
SWIDTH 740 0
DWIDTH 9 0
BBX 8 9 1 0
BITMAP
3E
62
C1
C0
C0
C0
C1
62
3C
ENDCHAR

STARTCHAR D
ENCODING 68
SWIDTH 780 0
DWIDTH 9 0
BBX 8 9 1 0
BITMAP
FC
66
63
63
63
63
63
66
FC
ENDCHAR

STARTCHAR E
ENCODING 69
SWIDTH 720 0
DWIDTH 9 0
BBX 8 9 0 0
BITMAP
FE
63
61
64
7C
64
61
63
FE
ENDCHAR

STARTCHAR F
ENCODING 70
SWIDTH 680 0
DWIDTH 8 0
BBX 8 9 0 0
BITMAP
FE
63
61
64
7C
64
60
60
F0
ENDCHAR

STARTCHAR G
ENCODING 71
SWIDTH 780 0
DWIDTH 9 0
BBX 9 9 0 0
BITMAP
3E00
6300
C100
C000
C000
C780
C300
6300
3D00
ENDCHAR

STARTCHAR H
ENCODING 72
SWIDTH 820 0
DWIDTH 10 0
BBX 9 9 0 0
BITMAP
F780
6300
6300
6300
7F00
6300
6300
6300
F780
ENDCHAR

STARTCHAR I
ENCODING 73
SWIDTH 400 0
DWIDTH 5 0
BBX 4 9 0 0
BITMAP
F0
60
60
60
60
60
60
60
F0
ENDCHAR

STARTCHAR J
ENCODING 74
SWIDTH 640 0
DWIDTH 8 0
BBX 7 9 0 0
BITMAP
1E
0C
0C
0C
0C
CC
CC
CC
78
ENDCHAR

STARTCHAR K
ENCODING 75
SWIDTH 800 0
DWIDTH 10 0
BBX 8 9 1 0
BITMAP
FF
66
6C
78
6C
6C
66
66
FF
ENDCHAR

STARTCHAR L
ENCODING 76
SWIDTH 640 0
DWIDTH 8 0
BBX 8 9 0 0
BITMAP
F0
60
60
60
60
60
61
62
FE
ENDCHAR

STARTCHAR M
ENCODING 77
SWIDTH 940 0
DWIDTH 11 0
BBX 11 9 0 0
BITMAP
F1E0
71C0
71C0
5AC0
5AC0
5AC0
4CC0
4CC0
EDE0
ENDCHAR

STARTCHAR N
ENCODING 78
SWIDTH 740 0
DWIDTH 9 0
BBX 8 9 0 0
BITMAP
F7
72
7A
5A
5A
4E
4E
46
E6
ENDCHAR

STARTCHAR O
ENCODING 79
SWIDTH 800 0
DWIDTH 10 0
BBX 9 9 0 0
BITMAP
3E00
6300
C180
C180
C180
C180
C180
6300
3E00
ENDCHAR

STARTCHAR P
ENCODING 80
SWIDTH 660 0
DWIDTH 8 0
BBX 7 9 1 0
BITMAP
FC
66
66
66
66
7C
60
60
F0
ENDCHAR

STARTCHAR Q
ENCODING 81
SWIDTH 800 0
DWIDTH 10 0
BBX 9 12 0 -3
BITMAP
3E00
6300
C180
C180
C180
C180
FF00
7300
FD80
C180
C300
3E00
ENDCHAR

STARTCHAR R
ENCODING 82
SWIDTH 780 0
DWIDTH 9 0
BBX 9 9 0 0
BITMAP
FE00
6300
6300
6300
7E00
6C00
6600
6700
F380
ENDCHAR

STARTCHAR S
ENCODING 83
SWIDTH 660 0
DWIDTH 8 0
BBX 8 9 0 0
BITMAP
7C
C6
C2
F8
7E
0F
83
C3
7C
ENDCHAR

STARTCHAR T
ENCODING 84
SWIDTH 700 0
DWIDTH 8 0
BBX 8 9 0 0
BITMAP
7E
DB
99
18
18
18
18
18
3C
ENDCHAR

STARTCHAR U
ENCODING 85
SWIDTH 740 0
DWIDTH 9 0
BBX 8 9 0 0
BITMAP
F7
62
62
62
62
62
62
62
3C
ENDCHAR

STARTCHAR V
ENCODING 86
SWIDTH 720 0
DWIDTH 9 0
BBX 9 9 0 0
BITMAP
F380
6100
3300
3200
3200
1E00
1C00
1C00
0800
ENDCHAR

STARTCHAR W
ENCODING 87
SWIDTH 940 0
DWIDTH 11 0
BBX 12 9 0 0
BITMAP
FFF0
6640
6640
3740
3B80
3B80
1B80
1B00
1100
ENDCHAR

STARTCHAR X
ENCODING 88
SWIDTH 780 0
DWIDTH 9 0
BBX 9 9 0 0
BITMAP
FF80
7300
3200
1C00
1C00
1C00
3E00
6700
F780
ENDCHAR

STARTCHAR Y
ENCODING 89
SWIDTH 700 0
DWIDTH 8 0
BBX 8 9 0 0
BITMAP
F7
62
34
3C
18
18
18
18
3C
ENDCHAR

STARTCHAR Z
ENCODING 90
SWIDTH 640 0
DWIDTH 8 0
BBX 8 9 0 0
BITMAP
7F
46
8E
0C
18
30
71
63
FE
ENDCHAR

STARTCHAR bracketleft
ENCODING 91
SWIDTH 300 0
DWIDTH 4 0
BBX 3 11 1 -2
BITMAP
E0
C0
C0
C0
C0
C0
C0
C0
C0
C0
E0
ENDCHAR

STARTCHAR backslash
ENCODING 92
SWIDTH 600 0
DWIDTH 7 0
BBX 6 11 1 -2
BITMAP
C0
40
60
20
20
30
10
18
08
08
0C
ENDCHAR

STARTCHAR bracketright
ENCODING 93
SWIDTH 300 0
DWIDTH 4 0
BBX 3 11 0 -2
BITMAP
E0
60
60
60
60
60
60
60
60
60
E0
ENDCHAR

STARTCHAR asciicircum
ENCODING 94
SWIDTH 600 0
DWIDTH 7 0
BBX 6 5 1 4
BITMAP
30
30
78
48
CC
ENDCHAR

STARTCHAR underscore
ENCODING 95
SWIDTH 500 0
DWIDTH 6 0
BBX 6 1 0 -2
BITMAP
FC
ENDCHAR

STARTCHAR quoteleft
ENCODING 96
SWIDTH 320 0
DWIDTH 4 0
BBX 2 3 1 6
BITMAP
40
C0
C0
ENDCHAR

STARTCHAR a
ENCODING 97
SWIDTH 580 0
DWIDTH 7 0
BBX 6 6 1 0
BITMAP
70
D8
D8
D8
D8
7C
ENDCHAR

STARTCHAR b
ENCODING 98
SWIDTH 600 0
DWIDTH 7 0
BBX 7 9 0 0
BITMAP
E0
60
60
7C
66
66
66
66
7C
ENDCHAR

STARTCHAR c
ENCODING 99
SWIDTH 580 0
DWIDTH 7 0
BBX 6 6 0 0
BITMAP
78
CC
CC
C0
C4
78
ENDCHAR

STARTCHAR d
ENCODING 100
SWIDTH 640 0
DWIDTH 8 0
BBX 7 9 0 0
BITMAP
1C
0C
0C
7C
CC
CC
CC
CC
7E
ENDCHAR

STARTCHAR e
ENCODING 101
SWIDTH 580 0
DWIDTH 7 0
BBX 6 6 0 0
BITMAP
78
CC
FC
C0
C4
78
ENDCHAR

STARTCHAR f
ENCODING 102
SWIDTH 380 0
DWIDTH 5 0
BBX 5 9 0 0
BITMAP
38
68
60
F0
60
60
60
60
F0
ENDCHAR

STARTCHAR g
ENCODING 103
SWIDTH 580 0
DWIDTH 7 0
BBX 8 10 0 -3
BITMAP
03
3C
66
66
3C
40
7F
7F
83
7E
ENDCHAR

STARTCHAR h
ENCODING 104
SWIDTH 680 0
DWIDTH 8 0
BBX 8 9 0 0
BITMAP
E0
60
60
7C
66
66
66
66
FF
ENDCHAR

STARTCHAR i
ENCODING 105
SWIDTH 360 0
DWIDTH 4 0
BBX 4 9 0 0
BITMAP
60
60
00
E0
60
60
60
60
F0
ENDCHAR

STARTCHAR j
ENCODING 106
SWIDTH 340 0
DWIDTH 4 0
BBX 4 12 0 -3
BITMAP
30
30
00
70
30
30
30
30
30
30
B0
E0
ENDCHAR

STARTCHAR k
ENCODING 107
SWIDTH 660 0
DWIDTH 8 0
BBX 8 9 0 0
BITMAP
E0
60
60
6E
6C
78
7C
6E
FF
ENDCHAR

STARTCHAR l
ENCODING 108
SWIDTH 340 0
DWIDTH 4 0
BBX 4 9 0 0
BITMAP
E0
60
60
60
60
60
60
60
F0
ENDCHAR

STARTCHAR m
ENCODING 109
SWIDTH 1000 0
DWIDTH 12 0
BBX 12 6 0 0
BITMAP
FFE0
6660
6660
6660
6660
FFF0
ENDCHAR

STARTCHAR n
ENCODING 110
SWIDTH 680 0
DWIDTH 8 0
BBX 8 6 0 0
BITMAP
FE
66
66
66
66
FF
ENDCHAR

STARTCHAR o
ENCODING 111
SWIDTH 620 0
DWIDTH 7 0
BBX 6 6 1 0
BITMAP
78
CC
CC
CC
CC
78
ENDCHAR

STARTCHAR p
ENCODING 112
SWIDTH 640 0
DWIDTH 8 0
BBX 7 9 0 -3
BITMAP
FC
66
66
66
66
7C
60
60
F0
ENDCHAR

STARTCHAR q
ENCODING 113
SWIDTH 620 0
DWIDTH 7 0
BBX 7 9 0 -3
BITMAP
7C
CC
CC
CC
CC
7C
0C
0C
1E
ENDCHAR

STARTCHAR r
ENCODING 114
SWIDTH 460 0
DWIDTH 6 0
BBX 5 6 0 0
BITMAP
F8
F8
60
60
60
F0
ENDCHAR

STARTCHAR s
ENCODING 115
SWIDTH 520 0
DWIDTH 6 0
BBX 5 6 1 0
BITMAP
78
C8
F0
78
98
F0
ENDCHAR

STARTCHAR t
ENCODING 116
SWIDTH 460 0
DWIDTH 6 0
BBX 5 8 0 0
BITMAP
20
60
F8
60
60
60
68
70
ENDCHAR

STARTCHAR u
ENCODING 117
SWIDTH 660 0
DWIDTH 8 0
BBX 8 6 0 0
BITMAP
EE
66
66
66
66
7F
ENDCHAR

STARTCHAR v
ENCODING 118
SWIDTH 600 0
DWIDTH 7 0
BBX 7 6 0 0
BITMAP
FE
64
6C
38
38
10
ENDCHAR

STARTCHAR w
ENCODING 119
SWIDTH 800 0
DWIDTH 10 0
BBX 10 6 0 0
BITMAP
EFC0
6D80
2F00
3F00
3600
1200
ENDCHAR

STARTCHAR x
ENCODING 120
SWIDTH 600 0
DWIDTH 7 0
BBX 7 6 0 0
BITMAP
FE
6C
38
38
6C
FE
ENDCHAR

STARTCHAR y
ENCODING 121
SWIDTH 620 0
DWIDTH 7 0
BBX 7 9 0 -3
BITMAP
FE
64
6C
38
38
10
10
F0
E0
ENDCHAR

STARTCHAR z
ENCODING 122
SWIDTH 560 0
DWIDTH 7 0
BBX 6 6 0 0
BITMAP
7C
98
30
60
C4
F8
ENDCHAR

STARTCHAR braceleft
ENCODING 123
SWIDTH 320 0
DWIDTH 4 0
BBX 3 11 0 -2
BITMAP
60
40
40
40
40
80
40
40
40
40
60
ENDCHAR

STARTCHAR bar
ENCODING 124
SWIDTH 600 0
DWIDTH 7 0
BBX 1 9 3 0
BITMAP
80
80
80
80
80
80
80
80
80
ENDCHAR

STARTCHAR braceright
ENCODING 125
SWIDTH 320 0
DWIDTH 4 0
BBX 3 11 0 -2
BITMAP
C0
40
40
40
40
20
40
40
40
40
C0
ENDCHAR

STARTCHAR asciitilde
ENCODING 126
SWIDTH 600 0
DWIDTH 7 0
BBX 6 2 1 2
BITMAP
64
98
ENDCHAR

STARTCHAR exclamdown
ENCODING 161
SWIDTH 360 0
DWIDTH 4 0
BBX 2 9 1 -3
BITMAP
C0
C0
00
C0
C0
C0
C0
C0
C0
ENDCHAR

STARTCHAR cent
ENCODING 162
SWIDTH 660 0
DWIDTH 8 0
BBX 5 9 2 0
BITMAP
20
20
78
D8
C0
C8
70
20
20
ENDCHAR

STARTCHAR sterling
ENCODING 163
SWIDTH 660 0
DWIDTH 8 0
BBX 8 9 0 0
BITMAP
1E
63
63
63
FE
30
38
FB
E7
ENDCHAR

STARTCHAR currency
ENCODING 164
SWIDTH 660 0
DWIDTH 7 0
BBX 5 6 1 1
BITMAP
A8
50
88
88
50
B8
ENDCHAR

STARTCHAR yen
ENCODING 165
SWIDTH 660 0
DWIDTH 8 0
BBX 9 9 0 0
BITMAP
F780
6300
6200
3400
7700
1800
7F00
1800
3C00
ENDCHAR

STARTCHAR brokenbar
ENCODING 166
SWIDTH 600 0
DWIDTH 7 0
BBX 1 9 3 0
BITMAP
80
80
80
00
00
80
80
80
80
ENDCHAR

STARTCHAR section
ENCODING 167
SWIDTH 600 0
DWIDTH 7 0
BBX 6 11 1 -2
BITMAP
78
CC
C0
F8
DC
CC
E8
7C
0C
CC
78
ENDCHAR

STARTCHAR dieresis
ENCODING 168
SWIDTH 500 0
DWIDTH 6 0
BBX 5 2 1 7
BITMAP
D8
D8
ENDCHAR

STARTCHAR copyright
ENCODING 169
SWIDTH 740 0
DWIDTH 9 0
BBX 9 9 0 0
BITMAP
3E00
6300
DF80
A280
A080
A280
DD80
6300
3E00
ENDCHAR

STARTCHAR ordfeminine
ENCODING 170
SWIDTH 400 0
DWIDTH 5 0
BBX 4 6 1 3
BITMAP
F0
10
F0
90
F0
F0
ENDCHAR

STARTCHAR guillemotleft
ENCODING 171
SWIDTH 400 0
DWIDTH 5 0
BBX 4 4 0 1
BITMAP
50
A0
A0
50
ENDCHAR

STARTCHAR logicalnot
ENCODING 172
SWIDTH 600 0
DWIDTH 7 0
BBX 6 3 1 1
BITMAP
FC
04
04
ENDCHAR

STARTCHAR hyphen
ENCODING 173
SWIDTH 360 0
DWIDTH 4 0
BBX 4 1 0 2
BITMAP
F0
ENDCHAR

STARTCHAR registered
ENCODING 174
SWIDTH 740 0
DWIDTH 9 0
BBX 9 9 0 0
BITMAP
3E00
6300
FF80
9480
9C80
9680
F380
6300
3E00
ENDCHAR

STARTCHAR macron
ENCODING 175
SWIDTH 460 0
DWIDTH 6 0
BBX 4 1 1 8
BITMAP
F0
ENDCHAR

STARTCHAR degree
ENCODING 176
SWIDTH 400 0
DWIDTH 5 0
BBX 4 5 0 4
BITMAP
60
90
90
90
60
ENDCHAR

STARTCHAR plusminus
ENCODING 177
SWIDTH 600 0
DWIDTH 7 0
BBX 5 7 1 0
BITMAP
20
20
F8
20
20
00
F8
ENDCHAR

STARTCHAR twosuperior
ENCODING 178
SWIDTH 396 0
DWIDTH 5 0
BBX 4 5 -4 4
BITMAP
F0
10
30
60
F0
ENDCHAR

STARTCHAR threesuperior
ENCODING 179
SWIDTH 396 0
DWIDTH 5 0
BBX 3 5 -4 4
BITMAP
E0
20
E0
20
E0
ENDCHAR

STARTCHAR acute
ENCODING 180
SWIDTH 400 0
DWIDTH 5 0
BBX 3 2 1 7
BITMAP
60
C0
ENDCHAR

STARTCHAR mu
ENCODING 181
SWIDTH 660 0
DWIDTH 8 0
BBX 8 9 0 -3
BITMAP
EE
66
66
66
66
7F
60
60
60
ENDCHAR

STARTCHAR paragraph
ENCODING 182
SWIDTH 800 0
DWIDTH 10 0
BBX 9 10 0 -1
BITMAP
7F80
FB00
FB00
FB00
7B00
1B00
1B00
1B00
1B00
3F80
ENDCHAR

STARTCHAR periodcentered
ENCODING 183
SWIDTH 340 0
DWIDTH 6 0
BBX 2 2 2 3
BITMAP
C0
C0
ENDCHAR

STARTCHAR cedilla
ENCODING 184
SWIDTH 360 0
DWIDTH 4 0
BBX 2 3 1 -3
BITMAP
C0
40
C0
ENDCHAR

STARTCHAR onesuperior
ENCODING 185
SWIDTH 396 0
DWIDTH 5 0
BBX 3 5 -4 4
BITMAP
C0
40
40
40
E0
ENDCHAR

STARTCHAR ordmasculine
ENCODING 186
SWIDTH 400 0
DWIDTH 5 0
BBX 4 6 0 3
BITMAP
60
90
90
90
60
F0
ENDCHAR

STARTCHAR guillemotright
ENCODING 187
SWIDTH 400 0
DWIDTH 5 0
BBX 4 4 0 1
BITMAP
A0
50
50
A0
ENDCHAR

STARTCHAR onequarter
ENCODING 188
SWIDTH 990 0
DWIDTH 11 0
BBX 10 9 -4 0
BITMAP
C100
4200
4200
4400
EC80
0980
1280
13C0
21C0
ENDCHAR

STARTCHAR onehalf
ENCODING 189
SWIDTH 990 0
DWIDTH 11 0
BBX 10 9 -4 0
BITMAP
C100
4200
4200
4400
EFC0
0840
10C0
1180
23C0
ENDCHAR

STARTCHAR threequarters
ENCODING 190
SWIDTH 990 0
DWIDTH 11 0
BBX 10 9 -4 0
BITMAP
E100
A200
6200
2400
EC80
0980
1280
13C0
21C0
ENDCHAR

STARTCHAR questiondown
ENCODING 191
SWIDTH 660 0
DWIDTH 8 0
BBX 6 9 1 -3
BITMAP
30
30
00
10
70
E0
C4
C4
78
ENDCHAR

STARTCHAR Agrave
ENCODING 192
SWIDTH 720 0
DWIDTH 9 0
BBX 10 12 0 0
BITMAP
1800
0C00
0000
0C00
0C00
1600
1600
3600
3F00
2300
6300
F7C0
ENDCHAR

STARTCHAR Aacute
ENCODING 193
SWIDTH 720 0
DWIDTH 9 0
BBX 10 12 0 0
BITMAP
0C00
1800
0000
0C00
0C00
1600
1600
3600
3F00
2300
6300
F7C0
ENDCHAR

STARTCHAR Acircumflex
ENCODING 194
SWIDTH 720 0
DWIDTH 9 0
BBX 10 12 0 0
BITMAP
0C00
1200
0000
0C00
0C00
1600
1600
3600
3F00
2300
6300
F7C0
ENDCHAR

STARTCHAR Atilde
ENCODING 195
SWIDTH 720 0
DWIDTH 9 0
BBX 10 11 0 0
BITMAP
1E00
0000
0C00
0C00
1600
1600
3600
3F00
2300
6300
F7C0
ENDCHAR

STARTCHAR Adieresis
ENCODING 196
SWIDTH 720 0
DWIDTH 9 0
BBX 10 12 0 0
BITMAP
3600
3600
0000
0C00
0C00
1600
1600
3600
3F00
2300
6300
F7C0
ENDCHAR

STARTCHAR Aring
ENCODING 197
SWIDTH 720 0
DWIDTH 9 0
BBX 10 12 0 0
BITMAP
0C00
0C00
0000
0C00
0C00
1600
1600
3600
3F00
2300
6300
F7C0
ENDCHAR

STARTCHAR AE
ENCODING 198
SWIDTH 1140 0
DWIDTH 14 0
BBX 15 9 0 0
BITMAP
01FC
0384
0782
0590
09F0
1F90
3182
618C
F3FC
ENDCHAR

STARTCHAR Ccedilla
ENCODING 199
SWIDTH 740 0
DWIDTH 9 0
BBX 8 12 1 -3
BITMAP
3E
62
C1
C0
C0
C0
C1
62
3C
18
08
18
ENDCHAR

STARTCHAR Egrave
ENCODING 200
SWIDTH 720 0
DWIDTH 9 0
BBX 8 12 0 0
BITMAP
30
18
00
FE
63
61
64
7C
64
61
63
FE
ENDCHAR

STARTCHAR Eacute
ENCODING 201
SWIDTH 720 0
DWIDTH 9 0
BBX 8 12 0 0
BITMAP
18
30
00
FE
63
61
64
7C
64
61
63
FE
ENDCHAR

STARTCHAR Ecircumflex
ENCODING 202
SWIDTH 720 0
DWIDTH 9 0
BBX 8 12 0 0
BITMAP
18
24
00
FE
63
61
64
7C
64
61
63
FE
ENDCHAR

STARTCHAR Edieresis
ENCODING 203
SWIDTH 720 0
DWIDTH 9 0
BBX 8 12 0 0
BITMAP
6C
6C
00
FE
63
61
64
7C
64
61
63
FE
ENDCHAR

STARTCHAR Igrave
ENCODING 204
SWIDTH 400 0
DWIDTH 5 0
BBX 4 12 0 0
BITMAP
C0
60
00
F0
60
60
60
60
60
60
60
F0
ENDCHAR

STARTCHAR Iacute
ENCODING 205
SWIDTH 400 0
DWIDTH 5 0
BBX 4 12 0 0
BITMAP
60
C0
00
F0
60
60
60
60
60
60
60
F0
ENDCHAR

STARTCHAR Icircumflex
ENCODING 206
SWIDTH 400 0
DWIDTH 5 0
BBX 4 12 0 0
BITMAP
60
90
00
F0
60
60
60
60
60
60
60
F0
ENDCHAR

STARTCHAR Idieresis
ENCODING 207
SWIDTH 400 0
DWIDTH 5 0
BBX 5 12 0 0
BITMAP
D8
D8
00
F0
60
60
60
60
60
60
60
F0
ENDCHAR

STARTCHAR Eth
ENCODING 208
SWIDTH 780 0
DWIDTH 9 0
BBX 8 9 1 0
BITMAP
FC
66
63
63
FB
63
63
66
FC
ENDCHAR

STARTCHAR Ntilde
ENCODING 209
SWIDTH 740 0
DWIDTH 9 0
BBX 8 11 0 0
BITMAP
76
5C
F7
72
7A
5A
5A
4E
4E
46
E6
ENDCHAR

STARTCHAR Ograve
ENCODING 210
SWIDTH 800 0
DWIDTH 10 0
BBX 9 12 0 0
BITMAP
1800
0C00
0000
3E00
6300
C180
C180
C180
C180
C180
6300
3E00
ENDCHAR

STARTCHAR Oacute
ENCODING 211
SWIDTH 800 0
DWIDTH 10 0
BBX 9 12 0 0
BITMAP
0C00
1800
0000
3E00
6300
C180
C180
C180
C180
C180
6300
3E00
ENDCHAR

STARTCHAR Ocircumflex
ENCODING 212
SWIDTH 800 0
DWIDTH 10 0
BBX 9 12 0 0
BITMAP
1800
2400
0000
3E00
6300
C180
C180
C180
C180
C180
6300
3E00
ENDCHAR

STARTCHAR Otilde
ENCODING 213
SWIDTH 800 0
DWIDTH 10 0
BBX 9 11 0 0
BITMAP
1E00
0000
3E00
6300
C180
C180
C180
C180
C180
6300
3E00
ENDCHAR

STARTCHAR Odieresis
ENCODING 214
SWIDTH 800 0
DWIDTH 10 0
BBX 9 12 0 0
BITMAP
3600
3600
0000
3E00
6300
C180
C180
C180
C180
C180
6300
3E00
ENDCHAR

STARTCHAR multiply
ENCODING 215
SWIDTH 600 0
DWIDTH 7 0
BBX 6 6 1 1
BITMAP
C4
4C
30
30
C8
8C
ENDCHAR

STARTCHAR Oslash
ENCODING 216
SWIDTH 800 0
DWIDTH 10 0
BBX 9 10 0 0
BITMAP
0100
3F00
6300
C780
C580
C980
C980
D180
7300
3E00
ENDCHAR

STARTCHAR Ugrave
ENCODING 217
SWIDTH 740 0
DWIDTH 9 0
BBX 8 12 0 0
BITMAP
30
18
00
F7
62
62
62
62
62
62
62
3C
ENDCHAR

STARTCHAR Uacute
ENCODING 218
SWIDTH 740 0
DWIDTH 9 0
BBX 8 12 0 0
BITMAP
18
30
00
F7
62
62
62
62
62
62
62
3C
ENDCHAR

STARTCHAR Ucircumflex
ENCODING 219
SWIDTH 740 0
DWIDTH 9 0
BBX 8 12 0 0
BITMAP
18
24
00
F7
62
62
62
62
62
62
62
3C
ENDCHAR

STARTCHAR Udieresis
ENCODING 220
SWIDTH 740 0
DWIDTH 9 0
BBX 8 12 0 0
BITMAP
36
36
00
F7
62
62
62
62
62
62
62
3C
ENDCHAR

STARTCHAR Yacute
ENCODING 221
SWIDTH 700 0
DWIDTH 8 0
BBX 8 12 0 0
BITMAP
18
30
00
F7
62
34
3C
18
18
18
18
3C
ENDCHAR

STARTCHAR Thorn
ENCODING 222
SWIDTH 660 0
DWIDTH 8 0
BBX 7 9 1 0
BITMAP
F0
60
60
7C
66
66
7C
60
F0
ENDCHAR

STARTCHAR germandbls
ENCODING 223
SWIDTH 660 0
DWIDTH 8 0
BBX 9 10 0 -1
BITMAP
0F00
1980
3180
7300
3380
3180
3180
3180
3F00
E000
ENDCHAR

STARTCHAR agrave
ENCODING 224
SWIDTH 580 0
DWIDTH 7 0
BBX 6 9 1 0
BITMAP
60
30
00
70
D8
D8
D8
D8
7C
ENDCHAR

STARTCHAR aacute
ENCODING 225
SWIDTH 580 0
DWIDTH 7 0
BBX 6 9 1 0
BITMAP
30
60
00
70
D8
D8
D8
D8
7C
ENDCHAR

STARTCHAR acircumflex
ENCODING 226
SWIDTH 580 0
DWIDTH 7 0
BBX 6 9 1 0
BITMAP
30
48
00
70
D8
D8
D8
D8
7C
ENDCHAR

STARTCHAR atilde
ENCODING 227
SWIDTH 580 0
DWIDTH 7 0
BBX 6 8 1 0
BITMAP
50
28
70
D8
D8
D8
D8
7C
ENDCHAR

STARTCHAR adieresis
ENCODING 228
SWIDTH 580 0
DWIDTH 7 0
BBX 6 9 1 0
BITMAP
D8
D8
00
70
D8
D8
D8
D8
7C
ENDCHAR

STARTCHAR aring
ENCODING 229
SWIDTH 580 0
DWIDTH 7 0
BBX 6 9 1 0
BITMAP
30
30
00
70
D8
D8
D8
D8
7C
ENDCHAR

STARTCHAR ae
ENCODING 230
SWIDTH 880 0
DWIDTH 11 0
BBX 10 6 0 0
BITMAP
7F80
DCC0
DFC0
DC00
DE40
7B80
ENDCHAR

STARTCHAR ccedilla
ENCODING 231
SWIDTH 580 0
DWIDTH 7 0
BBX 6 9 0 -3
BITMAP
78
CC
CC
C0
C4
78
30
10
30
ENDCHAR

STARTCHAR egrave
ENCODING 232
SWIDTH 580 0
DWIDTH 7 0
BBX 6 9 0 0
BITMAP
60
30
00
78
CC
FC
C0
C4
78
ENDCHAR

STARTCHAR eacute
ENCODING 233
SWIDTH 580 0
DWIDTH 7 0
BBX 6 9 0 0
BITMAP
30
60
00
78
CC
FC
C0
C4
78
ENDCHAR

STARTCHAR ecircumflex
ENCODING 234
SWIDTH 580 0
DWIDTH 7 0
BBX 6 9 0 0
BITMAP
30
48
00
78
CC
FC
C0
C4
78
ENDCHAR

STARTCHAR edieresis
ENCODING 235
SWIDTH 580 0
DWIDTH 7 0
BBX 6 9 0 0
BITMAP
6C
6C
00
78
CC
FC
C0
C4
78
ENDCHAR

STARTCHAR igrave
ENCODING 236
SWIDTH 360 0
DWIDTH 4 0
BBX 4 9 0 0
BITMAP
C0
60
00
E0
60
60
60
60
F0
ENDCHAR

STARTCHAR iacute
ENCODING 237
SWIDTH 360 0
DWIDTH 4 0
BBX 4 9 0 0
BITMAP
60
C0
00
E0
60
60
60
60
F0
ENDCHAR

STARTCHAR icircumflex
ENCODING 238
SWIDTH 360 0
DWIDTH 4 0
BBX 4 9 0 0
BITMAP
60
90
00
E0
60
60
60
60
F0
ENDCHAR

STARTCHAR idieresis
ENCODING 239
SWIDTH 360 0
DWIDTH 4 0
BBX 5 9 0 0
BITMAP
D8
D8
00
E0
60
60
60
60
F0
ENDCHAR

STARTCHAR eth
ENCODING 240
SWIDTH 620 0
DWIDTH 7 0
BBX 6 10 1 0
BITMAP
10
E0
D8
18
7C
CC
CC
CC
CC
78
ENDCHAR

STARTCHAR ntilde
ENCODING 241
SWIDTH 680 0
DWIDTH 8 0
BBX 8 8 0 0
BITMAP
3C
00
FE
66
66
66
66
FF
ENDCHAR

STARTCHAR ograve
ENCODING 242
SWIDTH 620 0
DWIDTH 7 0
BBX 6 9 1 0
BITMAP
60
30
00
78
CC
CC
CC
CC
78
ENDCHAR

STARTCHAR oacute
ENCODING 243
SWIDTH 620 0
DWIDTH 7 0
BBX 6 9 1 0
BITMAP
30
60
00
78
CC
CC
CC
CC
78
ENDCHAR

STARTCHAR ocircumflex
ENCODING 244
SWIDTH 620 0
DWIDTH 7 0
BBX 6 9 1 0
BITMAP
30
48
00
78
CC
CC
CC
CC
78
ENDCHAR

STARTCHAR otilde
ENCODING 245
SWIDTH 620 0
DWIDTH 7 0
BBX 6 8 1 0
BITMAP
78
00
78
CC
CC
CC
CC
78
ENDCHAR

STARTCHAR odieresis
ENCODING 246
SWIDTH 620 0
DWIDTH 7 0
BBX 6 9 1 0
BITMAP
6C
6C
00
78
CC
CC
CC
CC
78
ENDCHAR

STARTCHAR divide
ENCODING 247
SWIDTH 600 0
DWIDTH 7 0
BBX 6 7 1 1
BITMAP
30
30
00
FC
00
30
30
ENDCHAR

STARTCHAR oslash
ENCODING 248
SWIDTH 620 0
DWIDTH 7 0
BBX 6 6 1 0
BITMAP
7C
DC
DC
EC
CC
F8
ENDCHAR

STARTCHAR ugrave
ENCODING 249
SWIDTH 660 0
DWIDTH 8 0
BBX 8 9 0 0
BITMAP
30
18
00
EE
66
66
66
66
7F
ENDCHAR

STARTCHAR uacute
ENCODING 250
SWIDTH 660 0
DWIDTH 8 0
BBX 8 9 0 0
BITMAP
18
30
00
EE
66
66
66
66
7F
ENDCHAR

STARTCHAR ucircumflex
ENCODING 251
SWIDTH 660 0
DWIDTH 8 0
BBX 8 9 0 0
BITMAP
18
24
00
EE
66
66
66
66
7F
ENDCHAR

STARTCHAR udieresis
ENCODING 252
SWIDTH 660 0
DWIDTH 8 0
BBX 8 9 0 0
BITMAP
6C
6C
00
EE
66
66
66
66
7F
ENDCHAR

STARTCHAR yacute
ENCODING 253
SWIDTH 620 0
DWIDTH 7 0
BBX 7 12 0 -3
BITMAP
18
30
00
FE
64
6C
38
38
10
10
F0
E0
ENDCHAR

STARTCHAR thorn
ENCODING 254
SWIDTH 640 0
DWIDTH 8 0
BBX 7 12 0 -3
BITMAP
E0
E0
60
7C
66
66
66
66
7C
60
60
F0
ENDCHAR

STARTCHAR ydieresis
ENCODING 255
SWIDTH 620 0
DWIDTH 7 0
BBX 7 12 0 -3
BITMAP
6C
6C
00
FE
64
6C
38
38
10
10
F0
E0
ENDCHAR
ENDFONT
